<svg xmlns="http://www.w3.org/2000/svg" width="1300" height="566" viewBox="0 0 1300 566">
<rect width="100%" height="100%" fill="#ffffff"/>
<text x="40" y="42" font-family="Arial" font-size="24" font-weight="700">Calibration target errors (direct_measurement)</text>
<line x1="790.0" y1="65" x2="790.0" y2="546" stroke="#344054" stroke-width="2"/>
<text x="40" y="96" font-family="Arial" font-size="14" fill="#101828">edv</text>
<rect x="726.3353895176061" y="82" width="63.66461048239388" height="18" fill="#027a48" opacity="0.85"/>
<text x="1230" y="96" font-family="Arial" font-size="14" text-anchor="end" fill="#101828">-3.7%</text>
<text x="40" y="124" font-family="Arial" font-size="14" fill="#101828">esv</text>
<rect x="706.474108955154" y="110" width="83.52589104484599" height="18" fill="#027a48" opacity="0.85"/>
<text x="1230" y="124" font-family="Arial" font-size="14" text-anchor="end" fill="#101828">-4.9%</text>
<text x="40" y="152" font-family="Arial" font-size="14" fill="#101828">stroke_volume</text>
<rect x="746.6284866664032" y="138" width="43.37151333359678" height="18" fill="#027a48" opacity="0.85"/>
<text x="1230" y="152" font-family="Arial" font-size="14" text-anchor="end" fill="#101828">-2.5%</text>
<text x="40" y="180" font-family="Arial" font-size="14" fill="#101828">cardiac_output</text>
<rect x="750.8800781977261" y="166" width="39.11992180227392" height="18" fill="#027a48" opacity="0.85"/>
<text x="1230" y="180" font-family="Arial" font-size="14" text-anchor="end" fill="#101828">-2.3%</text>
<text x="40" y="208" font-family="Arial" font-size="14" fill="#101828">ascending_aorta_pressure</text>
<rect x="700.9336638969089" y="194" width="89.06633610309106" height="18" fill="#027a48" opacity="0.85"/>
<text x="1230" y="208" font-family="Arial" font-size="14" text-anchor="end" fill="#101828">-5.2%</text>
<text x="40" y="236" font-family="Arial" font-size="14" fill="#101828">aortic_arch_pressure</text>
<rect x="636.7178664611488" y="222" width="153.28213353885124" height="18" fill="#027a48" opacity="0.85"/>
<text x="1230" y="236" font-family="Arial" font-size="14" text-anchor="end" fill="#101828">-8.9%</text>
<text x="40" y="264" font-family="Arial" font-size="14" fill="#101828">descending_aorta_pressure</text>
<rect x="494.0779978641481" y="250" width="295.9220021358519" height="18" fill="#b42318" opacity="0.85"/>
<text x="1230" y="264" font-family="Arial" font-size="14" text-anchor="end" fill="#101828">-17.2%</text>
<text x="40" y="292" font-family="Arial" font-size="14" fill="#101828">svc_pressure</text>
<rect x="790.0" y="278" width="47.12434605434282" height="18" fill="#027a48" opacity="0.85"/>
<text x="1230" y="292" font-family="Arial" font-size="14" text-anchor="end" fill="#101828">+2.7%</text>
<text x="40" y="320" font-family="Arial" font-size="14" fill="#101828">ivc_pressure</text>
<rect x="790.0" y="306" width="79.55182986684946" height="18" fill="#027a48" opacity="0.85"/>
<text x="1230" y="320" font-family="Arial" font-size="14" text-anchor="end" fill="#101828">+4.6%</text>
<text x="40" y="348" font-family="Arial" font-size="14" fill="#101828">rpa_pressure</text>
<rect x="647.0859171279299" y="334" width="142.91408287207008" height="18" fill="#027a48" opacity="0.85"/>
<text x="1230" y="348" font-family="Arial" font-size="14" text-anchor="end" fill="#101828">-8.3%</text>
<text x="40" y="376" font-family="Arial" font-size="14" fill="#101828">lpa_pressure</text>
<rect x="652.149102296706" y="362" width="137.85089770329395" height="18" fill="#027a48" opacity="0.85"/>
<text x="1230" y="376" font-family="Arial" font-size="14" text-anchor="end" fill="#101828">-8.0%</text>
<text x="40" y="404" font-family="Arial" font-size="14" fill="#101828">wedge_pressure</text>
<rect x="790.0" y="390" width="198.44831243234214" height="18" fill="#b42318" opacity="0.85"/>
<text x="1230" y="404" font-family="Arial" font-size="14" text-anchor="end" fill="#101828">+11.5%</text>
<text x="40" y="432" font-family="Arial" font-size="14" fill="#101828">svc_flow</text>
<rect x="760.0963963590415" y="418" width="29.903603640958476" height="18" fill="#027a48" opacity="0.85"/>
<text x="1230" y="432" font-family="Arial" font-size="14" text-anchor="end" fill="#101828">-1.7%</text>
<text x="40" y="460" font-family="Arial" font-size="14" fill="#101828">ivc_flow</text>
<rect x="790.0" y="446" width="249.16510547237158" height="18" fill="#b42318" opacity="0.85"/>
<text x="1230" y="460" font-family="Arial" font-size="14" text-anchor="end" fill="#101828">+14.5%</text>
<text x="40" y="488" font-family="Arial" font-size="14" fill="#101828">rpa_flow</text>
<rect x="790.0" y="474" width="19.10753134391203" height="18" fill="#027a48" opacity="0.85"/>
<text x="1230" y="488" font-family="Arial" font-size="14" text-anchor="end" fill="#101828">+1.1%</text>
<text x="40" y="516" font-family="Arial" font-size="14" fill="#101828">lpa_flow</text>
<rect x="790.0" y="502" width="22.86956788976789" height="18" fill="#027a48" opacity="0.85"/>
<text x="1230" y="516" font-family="Arial" font-size="14" text-anchor="end" fill="#101828">+1.3%</text>
<text x="40" y="544" font-family="Arial" font-size="14" fill="#101828">rpa_flow_fraction</text>
<rect x="788.4811414079892" y="530" width="1.5188585920108137" height="18" fill="#027a48" opacity="0.85"/>
<text x="1230" y="544" font-family="Arial" font-size="14" text-anchor="end" fill="#101828">-0.1%</text>
</svg>
